<svg width="107" height="18" viewBox="0 0 107 18" fill="none" xmlns="http://www.w3.org/2000/svg">
<path d="M0 4.22433H7.39844V17.4488H12.3307V4.22433H17.7373V0.367188H2.18159L0 4.22433Z" fill="white"/>
<path d="M24.0924 10.5611H29.1196L31.3012 6.97943H24.0924V4.04066H33.0085V0.367188H19.1602V17.4488H33.3879V13.6835H24.0924V10.5611Z" fill="white"/>
<path d="M58.6156 13.7755C57.6671 13.7755 56.8134 13.5918 56.0546 13.1327C55.2958 12.7653 54.7266 12.1224 54.3472 11.3878C53.9678 10.6531 53.6833 9.82653 53.6833 8.81633C53.6833 7.89796 53.873 6.97959 54.3472 6.2449C54.7266 5.5102 55.2958 4.95918 56.0546 4.5C56.8134 4.13265 57.6671 3.85714 58.6156 3.85714C60.2281 3.85714 61.6508 4.5 62.7891 5.87755L66.014 3.12245C65.1603 2.11224 64.117 1.28571 62.7891 0.734694C61.4611 0.27551 59.9435 0 58.331 0C56.434 0 54.8215 0.367347 53.3039 1.10204C51.7862 1.83673 50.648 2.93878 49.7944 4.22449C48.9407 5.60204 48.5613 7.07143 48.5613 8.81633C48.5613 10.5612 48.9407 12.0306 49.7944 13.4082C50.648 14.7857 51.7862 15.7959 53.3039 16.5306C54.8215 17.2653 56.434 17.6327 58.331 17.6327C59.9435 17.6327 61.3663 17.3571 62.6942 16.8061C64.0221 16.2551 65.0655 15.4286 65.9192 14.4184L62.6942 11.6633C61.6508 13.1327 60.2281 13.7755 58.6156 13.7755Z" fill="white"/>
<path d="M106.899 0.367188H102.725L96.6546 10.1937L90.4893 0.367188H86.4106V17.4488H90.9635V8.63249L95.5164 15.7958H97.698L102.251 8.35698L102.346 17.4488H106.899V0.367188Z" fill="white"/>
<path d="M80.3386 1.19388C78.821 0.367347 77.2085 0 75.3115 0C73.4144 0 71.802 0.367347 70.2843 1.19388C68.7667 1.92857 67.6285 3.03061 66.7748 4.40816C65.9212 5.78571 65.5417 7.2551 65.5417 9C65.5417 10.6531 65.9212 12.2143 66.7748 13.5918C67.6285 14.9694 68.7667 15.9796 70.2843 16.8061C71.802 17.5408 73.4144 18 75.3115 18C77.2085 18 78.821 17.6327 80.3386 16.8061C81.8562 16.0714 82.9945 14.9694 83.8481 13.5918C84.7018 12.2143 85.0812 10.7449 85.0812 9C85.0812 7.34694 84.7018 5.78571 83.8481 4.40816C82.9945 2.93878 81.8562 1.92857 80.3386 1.19388ZM79.485 11.4796C79.1056 12.2143 78.5364 12.7653 77.7776 13.2245C77.0188 13.5918 76.26 13.8673 75.3115 13.8673C74.4578 13.8673 73.6042 13.6837 72.8453 13.2245C72.0865 12.8571 71.5174 12.2143 71.138 11.4796C70.7586 10.7449 70.474 9.91837 70.474 8.90816C70.474 7.9898 70.6637 7.07143 71.138 6.33673C71.5174 5.60204 72.0865 5.05102 72.8453 4.59184C73.6042 4.22449 74.363 3.94898 75.3115 3.94898C76.1651 3.94898 77.0188 4.13265 77.7776 4.59184C78.5364 4.95918 79.1056 5.60204 79.485 6.33673C79.8644 7.07143 80.1489 7.89796 80.1489 8.90816C80.0541 9.82653 79.8644 10.7449 79.485 11.4796Z" fill="white"/>
<path d="M76.7353 5.69423C75.4074 5.14321 73.8897 5.32688 72.8464 6.24525C72.2773 6.70443 71.8979 7.25545 71.7082 7.89831C71.2339 9.3677 71.803 10.9289 73.1309 11.7554C74.364 12.582 76.0713 12.582 77.3044 11.7554C78.2529 11.2044 78.822 10.2861 79.0117 9.18402C79.2014 7.71463 78.2529 6.24525 76.7353 5.69423Z" fill="white"/>
<path d="M49.6998 0.367188H44.483L39.6455 7.07127V0.367188H34.6184V17.4488H39.6455V13.408L41.1632 11.2039L45.9058 17.4488H51.2175L44.0087 8.08147L49.6998 0.367188Z" fill="white"/>
</svg>
