<svg width="83" height="28" viewBox="0 0 83 28" fill="none" xmlns="http://www.w3.org/2000/svg">
<path fill-rule="evenodd" clip-rule="evenodd" d="M12.4838 21.7509H15.2832V1.16504H12.4838V21.7509Z" fill="white"/>
<path fill-rule="evenodd" clip-rule="evenodd" d="M10.8041 25.3422L8.00586 23.409V4.75628L10.8041 1.99316V25.3422Z" fill="white"/>
<path fill-rule="evenodd" clip-rule="evenodd" d="M6.32656 19.4415L4.41351 17.5526C3.37142 16.5251 2.79882 15.1587 2.79882 13.7046C2.79882 12.2511 3.37142 10.8852 4.41351 9.85715L9.98538 4.35744C10.2393 4.10679 10.5146 3.88537 10.8042 3.69157V0.58252C9.76873 0.989623 8.81879 1.60299 8.00651 2.40475L2.43519 7.90391C0.863834 9.45276 0 11.5126 0 13.7046C0 15.8966 0.863834 17.957 2.43409 19.507L6.32656 23.349V19.4415Z" fill="white"/>
<path fill-rule="evenodd" clip-rule="evenodd" d="M25.3328 7.90337L19.7609 2.4042C18.1907 0.854272 16.1032 0 13.8841 0C13.4092 0 12.9424 0.0416865 12.4834 0.11802V2.9461C12.9358 2.82917 13.4037 2.76366 13.8841 2.76366C15.3568 2.76366 16.7411 3.32939 17.7815 4.35689L23.354 9.85661C24.3955 10.8847 24.9686 12.2511 24.9686 13.7052C24.9686 15.1582 24.3955 16.5251 23.354 17.5521L17.7815 23.0523C16.7411 24.0809 15.3568 24.6467 13.8841 24.6467C12.4115 24.6467 11.0266 24.0809 9.98564 23.0523L8.00513 21.0986V25.0072C9.57593 26.555 11.6628 27.4098 13.8841 27.4098C16.1032 27.4098 18.1907 26.556 19.7609 25.0072L25.3328 19.507C26.9031 17.9565 27.7669 15.8966 27.7669 13.7052C27.7669 11.5137 26.9031 9.45221 25.3328 7.90337Z" fill="white"/>
<path fill-rule="evenodd" clip-rule="evenodd" d="M22.1681 11.0295L16.9631 5.89197V9.79953L20.1876 12.9822C20.5918 13.3812 20.5918 14.0287 20.1876 14.4276L14.6152 19.9257C14.2115 20.3236 13.5566 20.3236 13.153 19.9257L12.4838 19.2674V22.7267C12.9242 22.8962 13.3976 22.9882 13.8841 22.9882C14.908 22.9882 15.8706 22.5941 16.5951 21.8801L22.1681 16.3809C22.891 15.6652 23.2892 14.7162 23.2892 13.7049C23.2892 12.6942 22.891 11.7436 22.1681 11.0295Z" fill="white"/>
<path fill-rule="evenodd" clip-rule="evenodd" d="M42.2667 13.7123V13.6836C42.264 12.9858 42.1323 12.3383 41.8767 11.7428C41.6222 11.1462 41.257 10.6265 40.7853 10.1842C40.3125 9.73976 39.7514 9.39275 39.1026 9.14534C38.4516 8.89902 37.732 8.77343 36.9427 8.76855H33.0355V18.6566H36.9427C37.5746 18.6528 38.1614 18.571 38.705 18.4092C39.249 18.2462 39.7405 18.0167 40.1759 17.7168C40.6125 17.4174 40.9866 17.0655 41.3003 16.6557C41.6102 16.2459 41.8477 15.7911 42.016 15.2942C42.18 14.7977 42.264 14.2704 42.2667 13.7123ZM39.9627 13.7408C39.96 14.181 39.8876 14.5827 39.7444 14.9416C39.5996 15.3027 39.3951 15.6123 39.1301 15.8738C38.8636 16.1353 38.5455 16.3383 38.1758 16.478C37.8056 16.6209 37.3953 16.6902 36.9429 16.6934H35.2399V10.733H36.9429C37.3953 10.7352 37.8056 10.8088 38.1758 10.9512C38.5455 11.0963 38.8636 11.2998 39.1301 11.5662C39.3951 11.8298 39.5996 12.1449 39.7444 12.5076C39.8876 12.8725 39.96 13.2726 39.9627 13.7127V13.7408Z" fill="white"/>
<path fill-rule="evenodd" clip-rule="evenodd" d="M52.7984 13.2336V18.8124H50.5936V13.1481C50.5914 12.6267 50.5058 12.1877 50.3342 11.838C50.1603 11.4834 49.914 11.2208 49.5926 11.0427C49.2696 10.8651 48.8851 10.7764 48.4326 10.7764C47.9823 10.7764 47.5968 10.8684 47.2754 11.0514C46.9523 11.2349 46.7083 11.5077 46.5355 11.8705C46.3616 12.2337 46.2744 12.6825 46.2733 13.219V18.8124H44.0685V13.1638C44.0745 12.1931 44.2478 11.3811 44.5961 10.7314C44.9427 10.0791 45.438 9.59024 46.0846 9.26163C46.7307 8.93519 47.5041 8.76953 48.4052 8.76953C49.0792 8.76953 49.6853 8.8621 50.2272 9.04617C50.7658 9.23186 51.2282 9.51012 51.6094 9.87878C51.9938 10.2485 52.2883 10.7152 52.4902 11.2728C52.6931 11.8304 52.7957 12.4855 52.7984 13.2336Z" fill="white"/>
<path fill-rule="evenodd" clip-rule="evenodd" d="M62.628 10.7764V8.76953H54.3286V10.7764H57.3759V18.6575H59.5796V10.7764H62.628Z" fill="white"/>
<path fill-rule="evenodd" clip-rule="evenodd" d="M71.9435 18.6575V16.7227H66.5055V14.6455H71.2272V12.7107H66.5055V10.7049H71.8722V8.76953H64.316V18.6575H71.9435Z" fill="white"/>
<path fill-rule="evenodd" clip-rule="evenodd" d="M82.7038 17.0612L81.3003 15.6634C81.0419 15.8995 80.7847 16.1025 80.5236 16.2773C80.2631 16.4479 79.985 16.5843 79.6845 16.6769C79.3861 16.771 79.0483 16.8219 78.6682 16.8219C78.2376 16.8182 77.846 16.7359 77.4906 16.5745C77.1358 16.411 76.8292 16.188 76.5719 15.9027C76.3142 15.6174 76.1167 15.2893 75.9752 14.9147C75.8353 14.5396 75.7662 14.14 75.7641 13.7134V13.6847C75.7662 13.2592 75.8381 12.8592 75.9796 12.4894C76.1222 12.1169 76.3251 11.7927 76.5824 11.5095C76.8412 11.228 77.15 11.0082 77.5027 10.8502C77.8554 10.6883 78.2437 10.6093 78.6682 10.6065C79.0005 10.6065 79.3121 10.6509 79.6061 10.7408C79.8989 10.8301 80.1781 10.959 80.4452 11.1241C80.7123 11.2914 80.9723 11.4895 81.2301 11.7218L82.632 10.1269C82.3248 9.82265 81.9864 9.55576 81.614 9.32785C81.241 9.09885 80.8182 8.92291 80.3394 8.79569C79.8611 8.6663 79.3099 8.60242 78.6825 8.60242C78.066 8.60242 77.4906 8.69066 76.958 8.86227C76.4249 9.03389 75.9451 9.27642 75.5162 9.59203C75.0867 9.9044 74.7198 10.2742 74.4115 10.7002C74.1061 11.1241 73.8718 11.5924 73.7078 12.1034C73.5433 12.6118 73.4621 13.1477 73.46 13.7134V13.7416C73.4621 14.3111 73.5455 14.8503 73.7106 15.3613C73.8779 15.8702 74.1132 16.3363 74.4192 16.757C74.7263 17.1814 75.0911 17.5457 75.5162 17.8543C75.9396 18.1634 76.4129 18.4006 76.9295 18.5705C77.4506 18.74 78.0067 18.8255 78.5963 18.8266C79.0784 18.8266 79.515 18.7849 79.9088 18.7032C80.3021 18.6231 80.6624 18.5034 80.9899 18.3513C81.3151 18.197 81.6195 18.0124 81.8997 17.7948C82.1795 17.5788 82.4488 17.3346 82.7038 17.0612Z" fill="white"/>
<path fill-rule="evenodd" clip-rule="evenodd" d="M45.3884 15.6682H51.5916V13.7334H45.3884V15.6682Z" fill="white"/>
</svg>
