<svg width="16" height="16" viewBox="0 0 16 16" fill="none" xmlns="http://www.w3.org/2000/svg">
<path d="M7.99997 6.93328C9.0293 6.93328 9.86663 6.09568 9.86663 5.06662C9.86663 4.03755 9.0293 3.19995 7.99997 3.19995C6.97063 3.19995 6.1333 4.03755 6.1333 5.06662C6.1333 6.09568 6.97063 6.93328 7.99997 6.93328ZM7.99997 3.73328C8.73517 3.73328 9.3333 4.33142 9.3333 5.06662C9.3333 5.80182 8.73517 6.39995 7.99997 6.39995C7.26477 6.39995 6.66663 5.80182 6.66663 5.06662C6.66663 4.33142 7.26477 3.73328 7.99997 3.73328Z" fill="white"/>
<path d="M7.95287 14.6019L12.0438 8.69333C13.5782 6.64773 13.3563 3.28533 11.5689 1.49813C10.603 0.532 9.31873 0 7.95287 0C6.587 0 5.30273 0.532 4.33687 1.49787C2.5494 3.28507 2.32753 6.64747 3.8558 8.68507L7.95287 14.6019ZM4.71393 1.87493C5.57927 1.00987 6.7294 0.533333 7.95287 0.533333C9.17633 0.533333 10.3265 1.00987 11.1918 1.87493C12.8051 3.488 13.0038 6.5248 11.6113 8.38133L7.95287 13.6648L4.2886 8.37333C2.90193 6.5248 3.10087 3.488 4.71393 1.87493Z" fill="white"/>
<path d="M11.2312 11.4684C11.0845 11.4505 10.9523 11.5556 10.9352 11.702C10.9181 11.8484 11.0227 11.9809 11.1688 11.998C13.9731 12.3281 15.4667 13.2177 15.4667 13.7332C15.4667 14.4569 12.6261 15.4665 8 15.4665C3.37387 15.4665 0.533333 14.4569 0.533333 13.7332C0.533333 13.2177 2.02693 12.3281 4.8312 11.998C4.97733 11.9809 5.08187 11.8481 5.0648 11.702C5.04747 11.5556 4.9152 11.45 4.7688 11.4684C1.96107 11.7991 0 12.7303 0 13.7332C0 14.8596 2.748 15.9999 8 15.9999C13.252 15.9999 16 14.8596 16 13.7332C16 12.7303 14.0389 11.7991 11.2312 11.4684Z" fill="white"/>
</svg>
