<svg width="54" height="54" viewBox="0 0 54 54" fill="none" xmlns="http://www.w3.org/2000/svg">
<path d="M16.1326 25.3524L16.3786 25.2074V24.9217V22.9396V22.6585L16.1385 22.5124L6.58804 16.701L5.82812 16.2386V17.1281V21.6782V21.9513L6.05803 22.0989L8.70699 23.7993L6.07475 25.3466L5.82812 25.4915V25.7776V30.5529V31.4282L6.58208 30.9836L16.1326 25.3524ZM21.487 30.1519H21.987V29.6519V25.5074V25.0074H21.487H18.0183H17.5183V25.5074V29.6519V30.1519H18.0183H21.487ZM21.487 22.606H21.987V22.106V17.9615V17.4615H21.487H18.0183H17.5183V17.9615V22.106V22.606H18.0183H21.487ZM30.9023 33.9812H31.4023V33.4812V29.6519V29.1519H30.9023H22.9512H22.4512V29.6519V33.4812V33.9812H22.9512H30.9023ZM53.5 53.5H0.5V14.2109H53.5V53.5Z" stroke="url(#paint0_linear)"/>
<path d="M53.5 10.0469H0.5V0.5H53.5V10.0469Z" stroke="url(#paint1_linear)"/>
<defs>
<linearGradient id="paint0_linear" x1="32.9383" y1="5.64509" x2="15.7993" y2="84.668" gradientUnits="userSpaceOnUse">
<stop stop-color="#FF6D6D"/>
<stop offset="1" stop-color="#2A31FF"/>
</linearGradient>
<linearGradient id="paint1_linear" x1="32.9383" y1="-2.11148" x2="31.7125" y2="19.4787" gradientUnits="userSpaceOnUse">
<stop stop-color="#FF6D6D"/>
<stop offset="1" stop-color="#2A31FF"/>
</linearGradient>
</defs>
</svg>
