<svg width="21" height="17" viewBox="0 0 21 17" fill="none" xmlns="http://www.w3.org/2000/svg">
<path d="M19.6364 5.87345H17.3523V0.978908C17.3523 0.43831 16.914 0 16.3734 0H1.36343C0.822832 0 0.384521 0.43831 0.384521 0.978908V12.7258C0.384521 13.2664 0.822832 13.7047 1.36343 13.7047H2.01604V16.6414C2.01604 16.7734 2.09554 16.8924 2.21743 16.9429C2.33931 16.9934 2.47968 16.9654 2.57304 16.8721L5.74048 13.7047H8.54209V14.3573C8.54209 14.8979 8.9804 15.3362 9.521 15.3362H17.1075L18.4099 16.8538C18.4719 16.9262 18.5622 16.9677 18.6575 16.9677C18.8377 16.9677 18.9838 16.8216 18.9838 16.6414V15.3362H19.6364C20.177 15.3362 20.6153 14.8979 20.6153 14.3573V6.85236C20.6153 6.31176 20.177 5.87345 19.6364 5.87345ZM5.60537 13.0521C5.51885 13.0521 5.43584 13.0865 5.37466 13.1477L2.66864 15.8537V13.3784C2.66864 13.1982 2.52254 13.0521 2.34234 13.0521H1.36343C1.18323 13.0521 1.03713 12.906 1.03713 12.7258V0.978908C1.03713 0.798709 1.18323 0.652605 1.36343 0.652605H16.3734C16.5536 0.652605 16.6997 0.798709 16.6997 0.978908V12.7258C16.6997 12.906 16.5536 13.0521 16.3734 13.0521H5.60537ZM19.9627 14.3573C19.9627 14.5375 19.8166 14.6836 19.6364 14.6836H18.6575C18.4773 14.6836 18.3312 14.8297 18.3312 15.0099V15.7604L17.5054 14.7979C17.4434 14.7254 17.3529 14.6838 17.2576 14.6836H9.521C9.3408 14.6836 9.1947 14.5375 9.1947 14.3573V13.7047H16.3734C16.914 13.7047 17.3523 13.2664 17.3523 12.7258V6.52605H19.6364C19.8166 6.52605 19.9627 6.67216 19.9627 6.85236V14.3573Z" fill="white"/>
<path d="M10.1736 6.85257C10.1736 6.13178 9.58918 5.54736 8.86838 5.54736C8.14758 5.54736 7.56317 6.13178 7.56317 6.85257C7.56317 7.57337 8.14758 8.15779 8.86838 8.15779C9.58918 8.15779 10.1736 7.57337 10.1736 6.85257ZM8.21578 6.85257C8.21578 6.49218 8.50798 6.19997 8.86838 6.19997C9.22878 6.19997 9.52099 6.49218 9.52099 6.85257C9.52099 7.21297 9.22878 7.50518 8.86838 7.50518C8.50798 7.50518 8.21578 7.21297 8.21578 6.85257Z" fill="white"/>
<path d="M12.4577 8.15779C13.1785 8.15779 13.7629 7.57337 13.7629 6.85257C13.7629 6.13178 13.1785 5.54736 12.4577 5.54736C11.7369 5.54736 11.1525 6.13178 11.1525 6.85257C11.1525 7.57337 11.7369 8.15779 12.4577 8.15779ZM12.4577 6.19997C12.8181 6.19997 13.1103 6.49218 13.1103 6.85257C13.1103 7.21297 12.8181 7.50518 12.4577 7.50518C12.0973 7.50518 11.8051 7.21297 11.8051 6.85257C11.8051 6.49218 12.0973 6.19997 12.4577 6.19997Z" fill="white"/>
<path d="M5.27903 5.54736C4.55823 5.54736 3.97382 6.13178 3.97382 6.85257C3.97382 7.57337 4.55823 8.15779 5.27903 8.15779C5.99983 8.15779 6.58424 7.57337 6.58424 6.85257C6.58424 6.13178 5.99983 5.54736 5.27903 5.54736ZM5.27903 7.50518C4.91863 7.50518 4.62642 7.21297 4.62642 6.85257C4.62642 6.49218 4.91863 6.19997 5.27903 6.19997C5.63943 6.19997 5.93163 6.49218 5.93163 6.85257C5.93163 7.21297 5.63943 7.50518 5.27903 7.50518Z" fill="white"/>
</svg>
