<svg width="42" height="45" viewBox="0 0 42 45" fill="none" xmlns="http://www.w3.org/2000/svg">
<circle cx="10.8683" cy="0.867351" r="0.867351" fill="white"/>
<circle cx="10.8674" cy="11.8674" r="0.867351" fill="white"/>
<circle cx="10.8674" cy="21.8674" r="0.867351" fill="white"/>
<circle cx="10.8674" cy="32.6969" r="0.867351" fill="white"/>
<circle cx="10.8674" cy="43.3077" r="0.867351" fill="white"/>
<circle cx="0.867351" cy="11.8674" r="0.867351" fill="white"/>
<circle cx="0.867351" cy="21.8674" r="0.867351" fill="white"/>
<circle cx="0.867351" cy="32.6969" r="0.867351" fill="white"/>
<circle cx="40.8674" cy="11.8674" r="0.867351" fill="white"/>
<circle cx="40.8674" cy="21.8674" r="0.867351" fill="white"/>
<circle cx="40.8674" cy="32.6969" r="0.867351" fill="white"/>
<circle cx="20.8674" cy="21.8674" r="0.867351" fill="white"/>
<circle cx="20.8674" cy="32.8674" r="0.867351" fill="white"/>
<circle cx="20.8674" cy="11.8674" r="0.867351" fill="white"/>
<circle cx="20.8674" cy="1.11161" r="0.867351" fill="white"/>
<circle cx="20.8674" cy="43.3077" r="0.867351" fill="white"/>
<circle cx="30.8674" cy="21.8674" r="0.867351" fill="white"/>
<circle cx="30.8674" cy="32.8674" r="0.867351" fill="white"/>
<circle cx="30.8674" cy="11.8674" r="0.867351" fill="white"/>
<circle cx="30.8674" cy="1.11161" r="0.867351" fill="white"/>
<circle cx="30.8674" cy="43.3077" r="0.867351" fill="white"/>
</svg>
