<svg width="37" height="39" viewBox="0 0 37 39" fill="none" xmlns="http://www.w3.org/2000/svg">
<circle cx="0.837944" cy="0.837944" r="0.837944" fill="white"/>
<circle cx="0.838677" cy="10.0499" r="0.837944" fill="white"/>
<circle cx="0.838677" cy="19.2626" r="0.837944" fill="white"/>
<circle cx="0.838677" cy="28.4749" r="0.837944" fill="white"/>
<circle cx="0.838677" cy="37.6877" r="0.837944" fill="white"/>
<circle cx="9.83794" cy="0.837944" r="0.837944" fill="white"/>
<circle cx="9.83868" cy="10.0499" r="0.837944" fill="white"/>
<circle cx="9.83868" cy="19.2626" r="0.837944" fill="white"/>
<circle cx="9.83874" cy="28.4749" r="0.837944" fill="white"/>
<circle cx="9.83868" cy="37.6877" r="0.837944" fill="white"/>
<circle cx="17.8379" cy="0.837944" r="0.837944" fill="white"/>
<circle cx="17.8387" cy="10.0499" r="0.837944" fill="white"/>
<circle cx="17.8387" cy="19.2626" r="0.837944" fill="white"/>
<circle cx="17.8387" cy="28.4749" r="0.837944" fill="white"/>
<circle cx="17.8387" cy="37.6877" r="0.837944" fill="white"/>
<circle cx="26.8379" cy="0.837944" r="0.837944" fill="white"/>
<circle cx="26.8387" cy="10.0499" r="0.837944" fill="white"/>
<circle cx="26.8387" cy="19.2626" r="0.837944" fill="white"/>
<circle cx="26.8387" cy="28.4749" r="0.837944" fill="white"/>
<circle cx="26.8387" cy="37.6877" r="0.837944" fill="white"/>
<circle cx="35.8379" cy="0.837944" r="0.837944" fill="white"/>
<circle cx="35.838" cy="10.0499" r="0.837944" fill="white"/>
<circle cx="35.838" cy="19.2626" r="0.837944" fill="white"/>
<circle cx="35.838" cy="28.4749" r="0.837944" fill="white"/>
<circle cx="35.838" cy="37.6877" r="0.837944" fill="white"/>
</svg>
