<svg width="34" height="35" viewBox="0 0 34 35" fill="none" xmlns="http://www.w3.org/2000/svg">
<ellipse cx="8.48216" cy="0.743148" rx="0.717758" ry="0.743392" fill="white"/>
<ellipse cx="8.48192" cy="8.91551" rx="0.717758" ry="0.743392" fill="white"/>
<ellipse cx="8.48192" cy="25.2617" rx="0.717758" ry="0.743392" fill="white"/>
<ellipse cx="8.48192" cy="33.435" rx="0.717758" ry="0.743392" fill="white"/>
<ellipse cx="0.717758" cy="0.744125" rx="0.717758" ry="0.743392" fill="white"/>
<ellipse cx="0.718002" cy="8.91551" rx="0.717758" ry="0.743392" fill="white"/>
<ellipse cx="0.718002" cy="17.0893" rx="0.717758" ry="0.743392" fill="white"/>
<ellipse cx="0.718002" cy="25.2617" rx="0.717758" ry="0.743392" fill="white"/>
<ellipse cx="0.718002" cy="33.435" rx="0.717758" ry="0.743392" fill="white"/>
<ellipse cx="16.5014" cy="0.93016" rx="0.717758" ry="0.743392" fill="white"/>
<ellipse cx="16.5005" cy="33.4346" rx="0.717758" ry="0.743392" fill="white"/>
<ellipse cx="24.3921" cy="0.743637" rx="0.717758" ry="0.743392" fill="white"/>
<ellipse cx="24.3911" cy="8.91502" rx="0.717758" ry="0.743392" fill="white"/>
<ellipse cx="24.3911" cy="25.2612" rx="0.717758" ry="0.743392" fill="white"/>
<ellipse cx="24.3911" cy="33.4346" rx="0.717758" ry="0.743392" fill="white"/>
<ellipse cx="32.2839" cy="0.743637" rx="0.717758" ry="0.743392" fill="white"/>
<ellipse cx="32.2827" cy="8.91502" rx="0.717758" ry="0.743392" fill="white"/>
<ellipse cx="32.2827" cy="17.0889" rx="0.717758" ry="0.743392" fill="white"/>
<ellipse cx="32.2827" cy="25.2612" rx="0.717758" ry="0.743392" fill="white"/>
<ellipse cx="32.2827" cy="33.4346" rx="0.717758" ry="0.743392" fill="white"/>
</svg>
