<svg width="24" height="24" viewBox="0 0 24 24" fill="none" xmlns="http://www.w3.org/2000/svg">
<path d="M23.389 15.9351C23.0517 15.9351 22.7781 16.2087 22.7781 16.546V18.8806C22.7781 20.2281 21.6817 21.3244 20.3342 21.3244H3.66577C2.31825 21.3244 1.22194 20.2281 1.22194 18.8806V16.546C1.22194 16.2087 0.948422 15.9351 0.610969 15.9351C0.273516 15.9351 0 16.2086 0 16.546V18.8806C0 20.9019 1.64447 22.5464 3.66577 22.5464H20.3342C22.3555 22.5464 24 20.9019 24 18.8806V16.546C24 16.2086 23.7265 15.9351 23.389 15.9351Z" fill="white"/>
<path d="M18.1839 11.2929C17.9592 11.0414 17.573 11.0195 17.3212 11.2443L12.6111 15.452V3.61097C12.6111 3.27361 12.3376 3 12.0002 3C11.6628 3 11.3892 3.27352 11.3892 3.61097V15.452L6.67912 11.2443C6.42754 11.0195 6.04129 11.0415 5.81643 11.293C5.59171 11.5447 5.61341 11.9309 5.86504 12.1557L10.9826 16.7272C11.2726 16.9864 11.6363 17.1159 12.0001 17.1159C12.3638 17.1159 12.7276 16.9864 13.0177 16.7274L18.1352 12.1557C18.3869 11.9308 18.4087 11.5445 18.1839 11.2929Z" fill="white"/>
</svg>
