<svg width="24" height="24" viewBox="0 0 24 24" fill="none" xmlns="http://www.w3.org/2000/svg">
<path d="M22.996 8.59995H21.6V6.09275C21.6 5.48995 21.1096 4.99995 20.5072 4.99995H10.606L8.606 2.19995H1.0928C0.4904 2.19995 0 2.69035 0 3.29275V20.7676H0.0024C0.0004 20.9928 0.0704 21.2132 0.2112 21.3976C0.4072 21.6536 0.704 21.8 1.026 21.8H18.9296C19.392 21.8 19.7992 21.4884 19.9096 21.0748L24 9.85955V9.78875C24 9.09995 23.5776 8.59995 22.996 8.59995ZM0.8 3.29275C0.8 3.13115 0.9316 2.99995 1.0928 2.99995H8.194L10.194 5.79995H20.5068C20.6684 5.79995 20.7996 5.93115 20.7996 6.09275V8.59995H5.0924C5.0348 8.59995 4.9776 8.60475 4.922 8.61435C4.5328 8.67955 4.2092 8.96355 4.1128 9.32475L0.8 18.3596V3.29275ZM19.1476 20.8332C19.1212 20.9312 19.0312 21 18.9296 21H1.026C0.9288 21 0.872 20.9444 0.8468 20.9112C0.8216 20.8784 0.7828 20.8088 0.7976 20.748L4.874 9.56675C4.9004 9.46875 4.9904 9.39995 5.092 9.39995H21.6H22.996C23.148 9.39995 23.1868 9.61835 23.1968 9.72755L19.1476 20.8332Z" fill="white"/>
</svg>
