<svg width="33" height="27" viewBox="0 0 33 27" fill="none" xmlns="http://www.w3.org/2000/svg">
<path d="M30.598 9.33498H26.9677V1.55583C26.9677 0.696629 26.2711 0 25.4119 0H1.55583C0.696629 0 0 0.696629 0 1.55583V20.2258C0 21.085 0.696629 21.7816 1.55583 21.7816H2.59305V26.4491C2.59305 26.6588 2.71941 26.8479 2.91313 26.9282C3.10685 27.0085 3.32994 26.9639 3.47833 26.8158L8.5125 21.7816H12.9653V22.8188C12.9653 23.678 13.6619 24.3747 14.5211 24.3747H26.5788L28.6487 26.7867C28.7472 26.9016 28.8907 26.9677 29.0422 26.9677C29.3286 26.9677 29.5608 26.7355 29.5608 26.4491V24.3747H30.598C31.4572 24.3747 32.1538 23.678 32.1538 22.8188V10.8908C32.1538 10.0316 31.4572 9.33498 30.598 9.33498ZM8.29776 20.7444C8.16026 20.7444 8.02833 20.7991 7.93109 20.8963L3.63027 25.1972V21.263C3.63027 20.9766 3.39806 20.7444 3.11166 20.7444H1.55583C1.26943 20.7444 1.03722 20.5122 1.03722 20.2258V1.55583C1.03722 1.26943 1.26943 1.03722 1.55583 1.03722H25.4119C25.6983 1.03722 25.9305 1.26943 25.9305 1.55583V20.2258C25.9305 20.5122 25.6983 20.7444 25.4119 20.7444H8.29776ZM31.1166 22.8188C31.1166 23.1052 30.8844 23.3375 30.598 23.3375H29.0422C28.7558 23.3375 28.5236 23.5697 28.5236 23.8561V25.0488L27.2111 23.519C27.1126 23.4038 26.9687 23.3377 26.8173 23.3375H14.5211C14.2347 23.3375 14.0025 23.1052 14.0025 22.8188V21.7816H25.4119C26.2711 21.7816 26.9677 21.085 26.9677 20.2258V10.3722H30.598C30.8844 10.3722 31.1166 10.6044 31.1166 10.8908V22.8188Z" fill="#FF6D6D"/>
<path d="M15.5583 10.8908C15.5583 9.74525 14.6294 8.81641 13.4838 8.81641C12.3382 8.81641 11.4094 9.74525 11.4094 10.8908C11.4094 12.0364 12.3382 12.9653 13.4838 12.9653C14.6294 12.9653 15.5583 12.0364 15.5583 10.8908ZM12.4466 10.8908C12.4466 10.318 12.911 9.85363 13.4838 9.85363C14.0566 9.85363 14.5211 10.318 14.5211 10.8908C14.5211 11.4636 14.0566 11.9281 13.4838 11.9281C12.911 11.9281 12.4466 11.4636 12.4466 10.8908Z" fill="#FF6D6D"/>
<path d="M19.1885 12.9653C20.3341 12.9653 21.2629 12.0364 21.2629 10.8908C21.2629 9.74525 20.3341 8.81641 19.1885 8.81641C18.0429 8.81641 17.114 9.74525 17.114 10.8908C17.114 12.0364 18.0429 12.9653 19.1885 12.9653ZM19.1885 9.85363C19.7613 9.85363 20.2257 10.318 20.2257 10.8908C20.2257 11.4636 19.7613 11.9281 19.1885 11.9281C18.6157 11.9281 18.1512 11.4636 18.1512 10.8908C18.1512 10.318 18.6157 9.85363 19.1885 9.85363Z" fill="#FF6D6D"/>
<path d="M7.77906 8.81641C6.63346 8.81641 5.70462 9.74525 5.70462 10.8908C5.70462 12.0364 6.63346 12.9653 7.77906 12.9653C8.92466 12.9653 9.8535 12.0364 9.8535 10.8908C9.8535 9.74525 8.92466 8.81641 7.77906 8.81641ZM7.77906 11.9281C7.20626 11.9281 6.74184 11.4636 6.74184 10.8908C6.74184 10.318 7.20626 9.85363 7.77906 9.85363C8.35186 9.85363 8.81628 10.318 8.81628 10.8908C8.81628 11.4636 8.35186 11.9281 7.77906 11.9281Z" fill="#FF6D6D"/>
</svg>
