<svg width="59" height="60" viewBox="0 0 59 60" fill="none" xmlns="http://www.w3.org/2000/svg">
<path d="M1.05358 35.7799H6.32146C6.62719 35.7799 6.87503 36.0278 6.87503 36.3335V58.4586C6.87503 58.7643 6.62719 59.0122 6.32146 59.0122H1.05358C0.747845 59.0122 0.5 58.7643 0.5 58.4586V36.3335C0.5 36.0278 0.747845 35.7799 1.05358 35.7799Z" stroke="url(#paint0_linear)"/>
<path d="M26.0499 46.8695V46.3695H26.0504H32.1841C32.6034 45.6633 32.6077 44.7764 32.1788 44.0611C32.1787 44.061 32.1787 44.0609 32.1786 44.0607L32.0846 43.9051C31.4108 42.7896 30.2043 42.1061 28.9012 42.1016H23.3896C23.1247 42.1016 22.8646 42.0857 22.6179 42.0688L22.6172 42.0687C20.3536 41.9101 18.1914 41.0684 16.4164 39.6548L16.4159 39.6544C14.9852 38.5123 13.2093 37.8893 11.3786 37.8873H9.98242V57.9588L19.1564 48.7374L19.156 48.7377C18.4421 49.2138 18.2495 50.1785 18.7257 50.8924C19.2018 51.6062 20.1665 51.7989 20.8804 51.3227M26.0499 46.8695C23.9695 46.8675 21.9354 47.4835 20.2057 48.6395M26.0499 46.8695H32.4504H26.0499ZM20.2057 48.6395L19.9286 48.2233L19.9279 48.2237L20.2057 48.6395ZM20.2057 48.6395L19.4334 49.1536C18.9493 49.4765 18.8187 50.1308 19.1416 50.6149C19.4645 51.099 20.1188 51.2297 20.6029 50.9068M20.6029 50.9068L20.8803 51.3228L20.8804 51.3227M20.6029 50.9068L21.3741 50.3926L20.8804 51.3227M20.6029 50.9068L20.8804 51.3227" stroke="url(#paint1_linear)"/>
<path d="M35.5408 46.0213C35.7289 44.8015 35.4904 43.5419 34.8463 42.464L34.845 42.4619L34.7502 42.3049L34.7502 42.3049C33.5125 40.2565 31.2963 39.0018 28.9031 38.9944H28.9016H23.3903C23.3713 38.9944 23.351 38.9935 23.3242 38.9919L9.84702 25.5137L17.4386 17.9342C18.2984 17.0775 18.7883 15.9182 18.8036 14.7046C18.8285 13.4909 18.357 12.3195 17.4983 11.4613C17.4982 11.4612 17.4982 11.4612 17.4981 11.4611L17.415 11.378L17.4151 11.378L17.4118 11.3748C16.7411 10.7163 15.7921 10.4253 14.8677 10.5944C13.1062 10.8901 11.3444 10.0713 10.4346 8.53422C9.61469 7.10242 9.65385 5.33442 10.5366 3.94028L10.5367 3.94031L10.5405 3.93407C11.3025 2.69076 12.5909 1.86389 14.0387 1.68907L14.0387 1.68907L14.0412 1.68875C15.3907 1.51879 16.7404 2.00282 17.6743 2.9917C18.6082 3.98059 19.0143 5.35568 18.7675 6.69328L18.7675 6.69327L18.766 6.70236C18.6133 7.62457 18.9109 8.56415 19.5667 9.23032L19.5782 9.24204L19.5905 9.25299L19.6565 9.31176C20.4972 10.1504 21.6378 10.6194 22.8257 10.6144H22.8888V10.6144L22.8971 10.6143C24.1102 10.5942 25.2674 10.1005 26.1214 9.23877C26.1217 9.23843 26.1221 9.23808 26.1224 9.23773L33.7142 1.65504L41.0365 8.97337C41.5933 9.56371 41.5726 10.4924 40.9891 11.0574L40.9866 11.0599L40.945 11.1007C38.5953 10.8096 36.2399 11.608 34.5512 13.2706C32.848 14.9474 32.0131 17.3158 32.2884 19.6899L32.2886 19.6917C32.5602 21.9651 33.8639 23.9868 35.8228 25.1721L35.8262 25.1741C38.2475 26.6137 41.2675 26.5911 43.667 25.1157C46.2946 23.5322 47.7442 20.5509 47.3674 17.5066L47.3967 17.4774L47.3967 17.4774L47.4027 17.4713C47.9658 16.8886 48.8919 16.866 49.4827 17.4195L56.8076 24.7444L35.5408 46.0213Z" stroke="url(#paint2_linear)"/>
<defs>
<linearGradient id="paint0_linear" x1="4.49854" y1="30.4286" x2="-20.3577" y2="56.4521" gradientUnits="userSpaceOnUse">
<stop stop-color="#FF6D6D"/>
<stop offset="1" stop-color="#2A31FF"/>
</linearGradient>
<linearGradient id="paint1_linear" x1="39.6867" y1="33.1688" x2="34.4144" y2="75.7904" gradientUnits="userSpaceOnUse">
<stop stop-color="#FF6D6D"/>
<stop offset="1" stop-color="#2A31FF"/>
</linearGradient>
<linearGradient id="paint2_linear" x1="38.6469" y1="-8.24515" x2="14.4643" y2="79.3883" gradientUnits="userSpaceOnUse">
<stop stop-color="#FF6D6D"/>
<stop offset="1" stop-color="#2A31FF"/>
</linearGradient>
</defs>
</svg>
