<svg width="13" height="13" viewBox="0 0 13 13" fill="none" xmlns="http://www.w3.org/2000/svg">
<path fill-rule="evenodd" clip-rule="evenodd" d="M4.06782 1.00827C4.68297 0.980368 4.87953 0.973633 6.44577 0.973633C8.012 0.973633 8.20856 0.980368 8.82371 1.00827C9.76086 1.05108 10.5841 1.28103 11.2449 1.9425C11.9057 2.60396 12.1354 3.42802 12.1782 4.3661C12.2061 4.98186 12.2128 5.17861 12.2128 6.7464C12.2128 8.31419 12.2061 8.51094 12.1782 9.12671C12.1354 10.0648 11.9057 10.8888 11.2449 11.5503C10.5841 12.2118 9.76086 12.4417 8.82371 12.4845C8.20856 12.5124 8.012 12.5192 6.44577 12.5192C4.87953 12.5192 4.68297 12.5124 4.06782 12.4845C3.13067 12.4417 2.30742 12.2118 1.64661 11.5503C0.985807 10.8888 0.756086 10.0648 0.713313 9.12671C0.685439 8.51094 0.678711 8.31419 0.678711 6.7464C0.678711 5.17861 0.685439 4.98186 0.713313 4.3661C0.756086 3.42802 0.985807 2.60396 1.64661 1.9425C2.30742 1.28103 3.13067 1.05108 4.06782 1.00827ZM8.95408 2.36537C8.29978 2.33734 8.10323 2.33154 6.446 2.33154C4.78877 2.33154 4.59222 2.33734 3.93792 2.36537C3.23137 2.39533 2.57603 2.52774 2.07173 2.99889C1.56742 3.47004 1.4257 4.0823 1.39363 4.74239C1.36363 5.35368 1.35742 5.53731 1.35742 7.08559C1.35742 8.63387 1.36363 8.81749 1.39363 9.42878C1.4257 10.0889 1.56742 10.7011 2.07173 11.1723C2.57603 11.6434 3.23137 11.7758 3.93792 11.8058C4.59222 11.8338 4.78877 11.8396 6.446 11.8396C8.10323 11.8396 8.29978 11.8338 8.95408 11.8058C9.66063 11.7758 10.316 11.6434 10.8203 11.1723C11.3246 10.7011 11.4663 10.0889 11.4984 9.42878C11.5284 8.81749 11.5346 8.63387 11.5346 7.08559C11.5346 5.53731 11.5284 5.35368 11.4984 4.74239C11.4663 4.0823 11.3246 3.47004 10.8203 2.99889C10.316 2.52774 9.66063 2.39533 8.95408 2.36537Z" fill="#FF6D6D"/>
<path fill-rule="evenodd" clip-rule="evenodd" d="M3.3927 6.74636C3.3927 5.05857 4.75973 3.69019 6.44585 3.69019C8.13196 3.69019 9.49899 5.05857 9.49899 6.74636C9.49899 8.43415 8.13196 9.80253 6.44585 9.80253C4.75973 9.80253 3.3927 8.43415 3.3927 6.74636ZM4.74963 7.08588C4.74963 8.21106 5.5091 9.12333 6.44583 9.12333C7.38255 9.12333 8.14202 8.21106 8.14202 7.08588C8.14202 5.9607 7.38255 5.04843 6.44583 5.04843C5.5091 5.04843 4.74963 5.9607 4.74963 7.08588Z" fill="#FF6D6D"/>
<path d="M9.49903 4.36928C9.87375 4.36928 10.1775 4.06522 10.1775 3.69014C10.1775 3.31505 9.87375 3.01099 9.49903 3.01099C9.12432 3.01099 8.82056 3.31505 8.82056 3.69014C8.82056 4.06522 9.12432 4.36928 9.49903 4.36928Z" fill="#FF6D6D"/>
</svg>
