<svg width="12" height="11" viewBox="0 0 12 11" fill="none" xmlns="http://www.w3.org/2000/svg">
<g clip-path="url(#clip0)">
<path d="M3.36586 3.7373H1.21642C1.12103 3.7373 1.04373 3.81464 1.04373 3.91V10.8152C1.04373 10.9106 1.12103 10.9879 1.21642 10.9879H3.36586C3.46125 10.9879 3.53855 10.9106 3.53855 10.8152V3.91C3.53855 3.81464 3.46125 3.7373 3.36586 3.7373Z" fill="#FF6D6D"/>
<path d="M2.29189 0.30542C1.5098 0.30542 0.873535 0.940997 0.873535 1.72222C0.873535 2.50379 1.5098 3.13961 2.29189 3.13961C3.07336 3.13961 3.70911 2.50376 3.70911 1.72222C3.70915 0.940997 3.07336 0.30542 2.29189 0.30542Z" fill="#FF6D6D"/>
<path d="M8.83309 3.56567C7.9698 3.56567 7.33163 3.93679 6.94456 4.35847V3.90999C6.94456 3.81463 6.86726 3.7373 6.77186 3.7373H4.7134C4.61801 3.7373 4.54071 3.81463 4.54071 3.90999V10.8152C4.54071 10.9106 4.61801 10.9879 4.7134 10.9879H6.85814C6.95354 10.9879 7.03083 10.9106 7.03083 10.8152V7.39872C7.03083 6.24745 7.34355 5.79893 8.14608 5.79893C9.02012 5.79893 9.08957 6.51795 9.08957 7.45795V10.8152C9.08957 10.9106 9.16687 10.9879 9.26227 10.9879H11.4078C11.5032 10.9879 11.5805 10.9106 11.5805 10.8152V7.0276C11.5805 5.3157 11.2541 3.56567 8.83309 3.56567Z" fill="#FF6D6D"/>
</g>
<defs>
<clipPath id="clip0">
<rect width="10.7069" height="10.7069" fill="white" transform="translate(0.873535 0.292969)"/>
</clipPath>
</defs>
</svg>
