<svg width="129" height="34" viewBox="0 0 129 34" fill="none" xmlns="http://www.w3.org/2000/svg">
<g clip-path="url(#clip0)">
<path d="M16.966 34C26.336 34 33.932 26.3888 33.932 17C33.932 7.61116 26.336 0 16.966 0C7.59593 0 0 7.61116 0 17C0 26.3888 7.59593 34 16.966 34Z" fill="black"/>
<path d="M16.9658 30.9711C24.6664 30.9711 30.9091 24.7159 30.9091 16.9998C30.9091 9.28371 24.6664 3.02856 16.9658 3.02856C9.26509 3.02856 3.02246 9.28371 3.02246 16.9998C3.02246 24.7159 9.26509 30.9711 16.9658 30.9711Z" fill="#414042"/>
<path d="M16.9662 30.6781C24.5053 30.6781 30.617 24.5542 30.617 16.9999C30.617 9.4457 24.5053 3.32178 16.9662 3.32178C9.4271 3.32178 3.31543 9.4457 3.31543 16.9999C3.31543 24.5542 9.4271 30.6781 16.9662 30.6781Z" fill="#939598"/>
<path d="M16.9657 30.3851C24.3433 30.3851 30.324 24.3924 30.324 17C30.324 9.60769 24.3433 3.61499 16.9657 3.61499C9.58813 3.61499 3.60742 9.60769 3.60742 17C3.60742 24.3924 9.58813 30.3851 16.9657 30.3851Z" fill="#4D4D4F"/>
<path d="M16.9662 27.5517C22.7821 27.5517 27.4968 22.8275 27.4968 17C27.4968 11.1724 22.7821 6.44824 16.9662 6.44824C11.1503 6.44824 6.43555 11.1724 6.43555 17C6.43555 22.8275 11.1503 27.5517 16.9662 27.5517Z" fill="#414142"/>
<path d="M16.9662 27.5517C22.7821 27.5517 27.4968 22.8275 27.4968 17C27.4968 11.1724 22.7821 6.44824 16.9662 6.44824C11.1503 6.44824 6.43555 11.1724 6.43555 17C6.43555 22.8275 11.1503 27.5517 16.9662 27.5517Z" fill="#414042"/>
<path d="M4.97235 14.2644L6.04492 15.046V15.1437L4.77734 15.4368V15.3391L5.84991 15.046L4.87485 14.3621L4.97235 14.2644Z" fill="white"/>
<path d="M5.16699 13.4827V13.385L6.33706 13.6781V13.7758L5.16699 13.4827Z" fill="white"/>
<path d="M6.9227 12.0173H7.0202L6.63018 12.7989L5.55762 12.3104L5.85013 11.6265H5.94764L5.65512 12.3104L6.04515 12.5058L6.33766 11.9196H6.43517L6.14265 12.5058L6.63018 12.7012L6.9227 12.0173Z" fill="white"/>
<path d="M7.3128 9.37939L8.09284 10.3564L7.99534 10.4541L6.92277 10.161L7.60531 11.0403L7.50781 11.138L6.24023 10.7472H6.33774L7.4103 11.0403L6.72776 10.161L6.82527 10.0633L7.89783 10.3564L7.21529 9.4771L7.3128 9.37939Z" fill="white"/>
<path d="M8.09247 8.59764L8.48249 8.89074L8.87252 8.40223L8.97002 8.49993L8.48249 9.08614L8.87252 9.47695H8.77501L7.89746 8.69534L8.48249 8.10913L8.58 8.20683L8.09247 8.59764Z" fill="white"/>
<path d="M9.16504 7.42534L9.26255 7.32764L10.0426 8.30465L9.94508 8.40235L9.16504 7.42534Z" fill="white"/>
<path d="M10.9205 6.25297L11.6031 7.32769L11.5056 7.42539L10.3355 6.83918L10.823 7.71849L10.7255 7.81619L10.043 6.74148L10.1405 6.64378L11.3105 7.03458L10.823 6.15527L10.9205 6.25297Z" fill="white"/>
<path d="M11.8955 5.76454L12.383 5.56914C12.4805 5.56914 12.578 5.47144 12.7731 5.47144C12.8706 5.47144 12.9681 5.47144 13.0656 5.56914C13.1631 5.66684 13.2606 5.76454 13.2606 5.86224C13.2606 5.95994 13.3581 6.05764 13.2606 6.15534C13.2606 6.25304 13.1631 6.35075 13.1631 6.44845C13.0656 6.54615 12.9681 6.64385 12.8706 6.64385L12.383 6.83925L11.8955 5.76454ZM12.7731 6.54615C12.8706 6.54615 12.9681 6.44845 12.9681 6.35075C13.0656 6.25304 13.0656 6.15534 13.0656 6.15534C13.0656 6.05764 13.0656 5.95994 13.0656 5.86224C13.0656 5.76454 12.9681 5.66684 12.8706 5.66684C12.7731 5.56914 12.6756 5.56914 12.6756 5.56914C12.578 5.56914 12.4805 5.56914 12.383 5.56914L12.0905 5.66684L12.4805 6.54615H12.7731Z" fill="white"/>
<path d="M15.0158 5.95972V6.05742L14.1382 6.25283L13.8457 5.08041L14.7233 4.88501V4.98271L14.0407 5.17811L14.1382 5.56892L14.7233 5.47122V5.56892L14.1382 5.66662L14.2357 6.15512L15.0158 5.95972Z" fill="white"/>
<path d="M16.5758 5.86211L16.2833 5.47131H16.1858H15.8933V5.86211H15.7957L15.6982 4.6897H16.1858C16.3808 4.6897 16.4783 4.6897 16.5758 4.7874C16.5758 4.7874 16.6733 4.8851 16.6733 5.0805C16.6733 5.1782 16.6733 5.2759 16.5758 5.37361C16.5758 5.47131 16.4783 5.47131 16.3808 5.56901L16.7708 5.86211H16.5758ZM16.4783 5.2759C16.4783 5.2759 16.5758 5.1782 16.5758 5.0805C16.5758 4.9828 16.5758 4.8851 16.4783 4.8851C16.3808 4.8851 16.2833 4.7874 16.1858 4.7874H15.8933V5.37361H16.1858C16.2833 5.37361 16.3808 5.37361 16.4783 5.2759Z" fill="white"/>
<path d="M28.1786 18.8565C28.1786 18.7588 28.2761 18.7588 28.2761 18.6611L28.3736 18.7588C28.2761 18.7588 28.2761 18.8565 28.2761 18.9542C28.2761 19.0519 28.1786 19.0519 28.1786 19.1496C28.1786 19.2473 28.1786 19.345 28.1786 19.4427C28.1786 19.5404 28.2761 19.5404 28.2761 19.5404H28.3736L28.4711 19.4427C28.4711 19.4427 28.5686 19.345 28.5686 19.2473C28.5686 19.1496 28.6661 19.0519 28.6661 19.0519C28.6661 18.9542 28.7636 18.9542 28.7636 18.9542C28.8611 18.9542 28.8611 18.9542 28.9586 18.9542C29.0561 18.9542 29.0561 18.9542 29.1536 19.0519C29.1536 19.0519 29.2511 19.1496 29.2511 19.2473C29.2511 19.345 29.2511 19.4427 29.2511 19.5404C29.2511 19.6381 29.2511 19.6381 29.1536 19.7358C29.0561 19.8336 29.0561 19.8335 29.0561 19.9313L28.9586 19.8335C28.9586 19.8335 29.0561 19.7358 29.0561 19.6381C29.0561 19.5404 29.0561 19.5404 29.1536 19.4427C29.1536 19.345 29.1536 19.2473 29.1536 19.1496C29.1536 19.0519 29.0561 19.0519 29.0561 19.0519H28.9586L28.8611 19.1496C28.8611 19.1496 28.7636 19.2473 28.7636 19.345C28.7636 19.4427 28.6661 19.5404 28.6661 19.5404C28.6661 19.6381 28.5686 19.6381 28.5686 19.6381C28.4711 19.6381 28.4711 19.6381 28.3736 19.6381C28.2761 19.6381 28.2761 19.6381 28.1786 19.5404C28.1786 19.5404 28.0811 19.4427 28.0811 19.345C28.0811 19.2473 28.0811 19.1496 28.0811 19.0519C28.0811 19.0519 28.0811 18.9542 28.1786 18.8565Z" fill="white"/>
<path d="M28.9591 20.6152V20.7129L27.7891 20.3221V20.2244L28.9591 20.6152Z" fill="white"/>
<path d="M28.179 22.6666L27.1064 22.1781V22.0804L28.374 21.7873L27.4965 21.3965L27.594 21.2988L28.6665 21.7873V21.885L27.3015 22.1781L28.179 22.5689V22.6666Z" fill="white"/>
<path d="M26.6185 23.1551C26.716 23.0574 26.8136 23.0574 26.9111 23.0574C27.0086 23.0574 27.1061 23.0574 27.2036 23.1551C27.3011 23.2528 27.3986 23.2528 27.3986 23.3505C27.3986 23.4482 27.4961 23.5459 27.4961 23.6436C27.4961 23.7413 27.4961 23.839 27.3986 23.9367C27.3011 24.0344 27.3011 24.0344 27.2036 24.1321C27.1061 24.1321 27.1061 24.2298 27.0086 24.2298V24.1321C27.1061 24.1321 27.2036 24.0344 27.3011 23.9367C27.3986 23.839 27.3986 23.7413 27.3986 23.6436C27.3986 23.5459 27.3986 23.4482 27.3011 23.3505C27.3011 23.2528 27.2036 23.2528 27.1061 23.1551C27.0086 23.0574 26.9111 23.0574 26.8135 23.0574C26.716 23.0574 26.6185 23.0574 26.521 23.1551C26.4235 23.1551 26.4235 23.2528 26.326 23.3505C26.326 23.5459 26.326 23.7413 26.326 23.839H26.2285C26.2285 23.7413 26.2285 23.6436 26.2285 23.6436C26.2285 23.5459 26.326 23.4482 26.326 23.4482C26.4235 23.2528 26.521 23.2528 26.6185 23.1551Z" fill="white"/>
<path d="M25.1562 25.1092L25.6438 24.4253L26.5213 25.2069L25.9363 25.7931L25.8388 25.6954L26.3263 25.2069L26.0338 24.9138L25.6438 25.4023L25.5463 25.3046L25.9363 24.8161L25.6438 24.523L25.1562 25.1092Z" fill="white"/>
<path d="M23.2061 26.6724L23.7911 26.0862L23.8886 26.1839L23.7911 26.8678C23.7911 26.9655 23.7911 27.0632 23.7911 27.0632C23.7911 27.1609 23.7911 27.1609 23.8886 27.1609C23.8886 27.2586 23.9861 27.2586 24.0836 27.2586C24.1811 27.2586 24.1811 27.2586 24.2786 27.1609C24.3761 27.0632 24.4736 26.9655 24.4736 26.8678H24.5711C24.5711 26.9655 24.5711 26.9655 24.4736 27.0632C24.4736 27.1609 24.3761 27.1609 24.2786 27.2586C24.1811 27.3563 24.0836 27.3563 23.9861 27.3563C23.8886 27.3563 23.7911 27.2586 23.7911 27.2586C23.7911 27.1609 23.6936 27.1609 23.6936 27.0632C23.6936 26.9655 23.6936 26.8678 23.6936 26.7701L23.7911 26.1839L23.2061 26.6724Z" fill="white"/>
<path d="M22.4259 27.0632C22.5234 27.0632 22.6209 27.0632 22.7184 27.1609C22.8159 27.2586 22.9134 27.3563 22.9134 27.454C23.0109 27.5517 23.0109 27.6494 23.0109 27.7471C23.0109 27.8448 23.0109 27.9425 22.9134 28.0402C22.9134 28.138 22.8159 28.1379 22.7184 28.2357C22.6209 28.2357 22.5234 28.3334 22.4259 28.3334C22.3283 28.3334 22.2308 28.3334 22.1333 28.2357C22.0358 28.1379 21.9383 28.0402 21.9383 27.9425C21.8408 27.8448 21.8408 27.7471 21.8408 27.6494C21.8408 27.5517 21.8408 27.454 21.9383 27.3563C21.9383 27.2586 22.0358 27.2586 22.1333 27.1609C22.3283 27.0632 22.3283 27.0632 22.4259 27.0632ZM22.1333 27.3563C22.1333 27.454 22.1333 27.454 22.1333 27.5517C22.1333 27.6494 22.1333 27.7471 22.2308 27.8448C22.3283 27.9425 22.3283 28.0402 22.4259 28.0402C22.5234 28.138 22.5234 28.1379 22.6209 28.1379C22.7184 28.1379 22.7184 28.1379 22.8159 28.1379C22.9134 28.1379 22.9134 28.0402 22.9134 28.0402C22.9134 27.9425 22.9134 27.9425 22.9134 27.8448C22.9134 27.7471 22.9134 27.6494 22.8159 27.5517C22.8159 27.454 22.7184 27.3563 22.6209 27.3563C22.5234 27.2586 22.5234 27.2586 22.4259 27.2586C22.3283 27.2586 22.3283 27.2586 22.2308 27.2586C22.2308 27.2586 22.1333 27.2586 22.1333 27.3563Z" fill="white"/>
<path d="M20.9635 27.7471C21.061 27.7471 21.1585 27.8448 21.1585 27.8448C21.256 27.9425 21.256 28.0402 21.3535 28.1379C21.3535 28.2356 21.451 28.3333 21.451 28.431C21.451 28.5287 21.451 28.6264 21.3535 28.7241C21.256 28.8218 21.256 28.8218 21.1585 28.9195C21.061 28.9195 20.9635 28.9195 20.866 28.9195C20.7685 28.9195 20.671 28.8218 20.671 28.8218C20.5735 28.7241 20.5735 28.6264 20.476 28.5287C20.476 28.431 20.3784 28.3333 20.476 28.2356C20.476 28.1379 20.476 28.0402 20.5735 27.9425C20.671 27.8448 20.671 27.8448 20.7685 27.7471C20.7685 27.7471 20.866 27.7471 20.9635 27.7471ZM20.5735 27.9425C20.5735 28.0402 20.476 28.0402 20.476 28.1379C20.476 28.2356 20.476 28.3333 20.476 28.431C20.476 28.5287 20.5735 28.6264 20.5735 28.6264C20.671 28.7241 20.671 28.7241 20.7685 28.7241C20.866 28.7241 20.866 28.7241 20.9635 28.7241C21.061 28.7241 21.061 28.6264 21.1585 28.6264C21.1585 28.5287 21.256 28.5287 21.256 28.431C21.256 28.3333 21.256 28.2356 21.256 28.1379C21.256 28.0402 21.1585 27.9425 21.1585 27.9425C21.061 27.8448 21.061 27.8448 20.9635 27.8448C20.866 27.8448 20.866 27.8448 20.7685 27.8448C20.671 27.8448 20.671 27.9425 20.5735 27.9425Z" fill="white"/>
<path d="M18.8182 28.6262C18.8182 28.6262 18.7207 28.5285 18.7207 28.4308C18.7207 28.3331 18.7207 28.3331 18.7207 28.2354C18.7207 28.1377 18.8182 28.1377 18.8182 28.1377C18.9157 28.1377 19.0132 28.04 19.0132 28.04C19.1107 28.04 19.3057 28.04 19.4032 28.04C19.5007 28.1377 19.5008 28.1377 19.5983 28.2354C19.5983 28.3331 19.5983 28.3331 19.5983 28.4308C19.5983 28.5285 19.5007 28.5285 19.4032 28.5285C19.5007 28.5285 19.5008 28.5285 19.5983 28.6262C19.5983 28.6262 19.6958 28.7239 19.6958 28.8216C19.6958 28.9193 19.6958 29.017 19.5983 29.1148C19.5983 29.2125 19.5007 29.3102 19.4032 29.3102C19.3057 29.3102 19.2082 29.3102 19.2082 29.3102C19.1107 29.3102 19.1107 29.3102 19.0132 29.2125C18.9157 29.1148 18.9157 29.1148 18.9157 29.0171C18.9157 28.9193 18.9157 28.9193 18.9157 28.8216C18.9157 28.7239 19.0132 28.7239 19.0132 28.7239C19.0132 28.7239 18.9157 28.7239 18.8182 28.6262ZM19.0132 28.2354C18.9157 28.3331 18.9157 28.3331 18.9157 28.4308C18.9157 28.5285 19.0132 28.5285 19.0132 28.6262C19.1107 28.6262 19.2082 28.6262 19.3057 28.6262C19.4032 28.6262 19.5008 28.6262 19.5008 28.5285C19.5983 28.4308 19.5983 28.4308 19.5983 28.3331C19.5983 28.2354 19.5983 28.2354 19.5008 28.1377C19.4032 28.1377 19.3057 28.1377 19.2082 28.1377C19.1107 28.1377 19.0132 28.2354 19.0132 28.2354ZM19.5008 28.7239C19.4032 28.7239 19.4032 28.7239 19.3057 28.7239C19.2082 28.7239 19.1107 28.7239 19.1107 28.8216C19.1107 28.8216 19.0132 28.9193 19.0132 29.0171C19.0132 29.1148 19.0132 29.1148 19.1107 29.2125C19.2082 29.2125 19.2082 29.2125 19.3057 29.2125C19.4032 29.2125 19.5008 29.2125 19.5008 29.1148C19.5008 29.1148 19.5983 29.0171 19.5983 28.9193C19.5983 28.8216 19.5983 28.8216 19.5008 28.7239Z" fill="white"/>
<path d="M16.9665 27.3564C22.6747 27.3564 27.3021 22.7198 27.3021 17.0001C27.3021 11.2805 22.6747 6.6438 16.9665 6.6438C11.2583 6.6438 6.63086 11.2805 6.63086 17.0001C6.63086 22.7198 11.2583 27.3564 16.9665 27.3564Z" fill="#414042"/>
<path d="M16.9656 26.6725C22.2968 26.6725 26.6186 22.342 26.6186 17.0001C26.6186 11.6581 22.2968 7.32764 16.9656 7.32764C11.6343 7.32764 7.3125 11.6581 7.3125 17.0001C7.3125 22.342 11.6343 26.6725 16.9656 26.6725Z" fill="black"/>
<path d="M16.966 26.3792C22.1357 26.3792 26.3266 22.18 26.3266 16.9999C26.3266 11.8199 22.1357 7.62061 16.966 7.62061C11.7963 7.62061 7.60547 11.8199 7.60547 16.9999C7.60547 22.18 11.7963 26.3792 16.966 26.3792Z" fill="#939598"/>
<path d="M16.9663 26.1837C22.0283 26.1837 26.1318 22.072 26.1318 16.9998C26.1318 11.9277 22.0283 7.81592 16.9663 7.81592C11.9043 7.81592 7.80078 11.9277 7.80078 16.9998C7.80078 22.072 11.9043 26.1837 16.9663 26.1837Z" fill="#4D4D4F"/>
<path d="M16.9659 25.793C21.8125 25.793 25.7414 21.8562 25.7414 16.9999C25.7414 12.1436 21.8125 8.20679 16.9659 8.20679C12.1194 8.20679 8.19043 12.1436 8.19043 16.9999C8.19043 21.8562 12.1194 25.793 16.9659 25.793Z" fill="#414042"/>
<path d="M16.9659 24.523C21.1125 24.523 24.4739 21.1549 24.4739 17C24.4739 12.8452 21.1125 9.47705 16.9659 9.47705C12.8194 9.47705 9.45801 12.8452 9.45801 17C9.45801 21.1549 12.8194 24.523 16.9659 24.523Z" fill="#4D4D4F"/>
<path d="M16.9653 24.3275C21.0041 24.3275 24.2782 21.0469 24.2782 16.9999C24.2782 12.953 21.0041 9.67236 16.9653 9.67236C12.9265 9.67236 9.65234 12.953 9.65234 16.9999C9.65234 21.0469 12.9265 24.3275 16.9653 24.3275Z" fill="#414042"/>
<path d="M16.9664 24.2298C20.9514 24.2298 24.1818 20.9929 24.1818 16.9999C24.1818 13.0069 20.9514 9.77002 16.9664 9.77002C12.9814 9.77002 9.75098 13.0069 9.75098 16.9999C9.75098 20.9929 12.9814 24.2298 16.9664 24.2298Z" fill="#414042"/>
<path d="M16.966 23.8391C20.7356 23.8391 23.7914 20.7771 23.7914 17C23.7914 13.2228 20.7356 10.1609 16.966 10.1609C13.1965 10.1609 10.1406 13.2228 10.1406 17C10.1406 20.7771 13.1965 23.8391 16.966 23.8391Z" fill="black"/>
<path d="M16.9662 22.4711C19.9818 22.4711 22.4265 20.0215 22.4265 16.9998C22.4265 13.9781 19.9818 11.5286 16.9662 11.5286C13.9505 11.5286 11.5059 13.9781 11.5059 16.9998C11.5059 20.0215 13.9505 22.4711 16.9662 22.4711Z" fill="#003C60"/>
<path d="M16.9656 22.1781C19.8197 22.1781 22.1334 19.8598 22.1334 16.9999C22.1334 14.1401 19.8197 11.8218 16.9656 11.8218C14.1116 11.8218 11.7979 14.1401 11.7979 16.9999C11.7979 19.8598 14.1116 22.1781 16.9656 22.1781Z" fill="black"/>
<path d="M16.966 21.9826C19.7124 21.9826 21.9387 19.7517 21.9387 16.9998C21.9387 14.2479 19.7124 12.0171 16.966 12.0171C14.2196 12.0171 11.9932 14.2479 11.9932 16.9998C11.9932 19.7517 14.2196 21.9826 16.966 21.9826Z" fill="#003C60"/>
<path d="M16.9657 20.9081C19.1197 20.9081 20.8659 19.1584 20.8659 17.0001C20.8659 14.8417 19.1197 13.092 16.9657 13.092C14.8116 13.092 13.0654 14.8417 13.0654 17.0001C13.0654 19.1584 14.8116 20.9081 16.9657 20.9081Z" fill="#005E9E"/>
<path d="M16.9657 20.2242C18.7428 20.2242 20.1834 18.7807 20.1834 17C20.1834 15.2194 18.7428 13.7759 16.9657 13.7759C15.1887 13.7759 13.748 15.2194 13.748 17C13.748 18.7807 15.1887 20.2242 16.9657 20.2242Z" fill="#007DB6"/>
<path d="M45.2422 23.6436H43.292L38.9043 10.2585H41.6345L44.3646 18.7585L46.9973 10.2585H49.7274L45.2422 23.6436Z" fill="white"/>
<path d="M53.5304 12.3102H51.0928V10.3562H53.5304V12.3102ZM53.5304 23.6436H51.0928V13.8734H53.5304V23.6436Z" fill="white"/>
<path d="M59.2834 13.8735C59.9659 13.8735 60.551 13.9712 61.0385 14.2643C61.526 14.4597 62.0136 14.8505 62.4036 15.2414C62.7936 15.6322 63.0861 16.1207 63.1836 16.7069C63.3786 17.2931 63.4762 17.8793 63.4762 18.5632V19.5402H57.4308C57.4308 20.2241 57.6258 20.7126 58.0158 21.1034C58.4059 21.4942 58.8934 21.6896 59.5759 21.6896C60.0635 21.6896 60.551 21.5919 60.8435 21.4942C61.136 21.2988 61.4285 21.1034 61.721 20.8103L63.1836 22.2758C62.8911 22.5689 62.6961 22.7643 62.4036 22.9597C62.1111 23.1551 61.9161 23.3505 61.6235 23.4482C61.331 23.5459 61.0385 23.6436 60.6485 23.7413C60.2585 23.8391 59.8684 23.8391 59.4784 23.8391C58.8934 23.8391 58.3084 23.7414 57.8208 23.6436C57.3333 23.4482 56.8458 23.2528 56.3582 22.862C55.9682 22.4712 55.5782 21.9827 55.3832 21.2988C55.0907 20.6149 54.9932 19.8333 54.9932 18.8563C54.9932 18.0747 55.0907 17.3908 55.2857 16.7069C55.4807 16.1207 55.7732 15.5345 56.1632 15.1437C56.5533 14.7528 56.9433 14.362 57.5283 14.1666C58.1133 13.9712 58.6984 13.8735 59.2834 13.8735ZM59.2834 15.8276C58.8934 15.8276 58.5034 15.9253 58.2108 16.1207C57.9183 16.3161 57.7233 16.5115 57.6258 16.8046C57.5283 17 57.5283 17.0977 57.4308 17.2931C57.4308 17.4885 57.4308 17.5862 57.4308 17.8793H61.136C61.136 17.6839 61.136 17.4885 61.136 17.2931C61.136 17.0977 61.0385 17 60.941 16.8046C60.8435 16.5115 60.6485 16.3161 60.356 16.1207C60.0635 15.9253 59.7709 15.8276 59.2834 15.8276Z" fill="white"/>
<path d="M75.274 23.6437H73.3239L71.2763 17.5862L69.2286 23.6437H67.2785L64.2559 13.8735H66.791L68.3511 19.931L70.3012 13.8735H72.1538L74.1039 19.931L75.664 13.8735H78.1992L75.274 23.6437Z" fill="white"/>
<path d="M84.7321 12.3103H83.757C83.172 12.3103 82.8795 12.6034 82.8795 13.1896V13.8735H84.6346V15.7298H82.8795V23.6436H80.4419V15.7298H79.4668V13.8735H80.4419V12.9942C80.4419 12.7011 80.5394 12.3103 80.6369 12.0172C80.7344 11.7241 80.9294 11.3333 81.1244 11.1379C81.3194 10.8448 81.6119 10.6493 82.0019 10.4539C82.392 10.2585 82.782 10.2585 83.2695 10.2585H84.6346V12.3103H84.7321Z" fill="white"/>
<path d="M89.4121 12.3102H86.9745V10.3562H89.4121V12.3102ZM89.3146 23.6436H86.877V13.8734H89.3146V23.6436Z" fill="white"/>
<path d="M96.2379 13.8735C97.213 13.8735 97.993 14.1666 98.578 14.7528C98.9681 15.1437 99.2606 15.5345 99.3581 16.023C99.4556 16.5115 99.5531 17 99.5531 17.4885V23.7414H97.1154V17.8793C97.1154 17.5862 97.1154 17.2931 97.0179 17C96.9204 16.8046 96.8229 16.6092 96.6279 16.4138C96.4329 16.3161 96.3354 16.2184 96.1404 16.1207C95.9454 16.023 95.7504 16.023 95.5554 16.023C95.3603 16.023 95.1653 16.023 94.9703 16.1207C94.7753 16.2184 94.5803 16.3161 94.4828 16.4138C94.2878 16.5115 94.1903 16.7069 94.0928 17C93.9953 17.1954 93.9953 17.4885 93.9953 17.8793V23.7414H91.5576V13.9712H93.8978V14.8505C94.1903 14.5574 94.5803 14.2643 94.9703 14.0689C95.3603 13.8735 95.8479 13.8735 96.2379 13.8735Z" fill="white"/>
<path d="M109.693 23.6437H107.353V22.7644C107.061 23.1552 106.671 23.4483 106.281 23.546C105.891 23.7414 105.501 23.7414 104.916 23.7414C104.428 23.7414 103.941 23.6437 103.551 23.546C103.161 23.3506 102.771 23.1552 102.478 22.8621C102.283 22.6667 102.088 22.3736 101.893 22.0805C101.795 21.7874 101.698 21.4943 101.6 21.1035C101.503 20.7127 101.503 20.4196 101.503 20.0288C101.503 19.638 101.503 19.2472 101.503 18.8564C101.503 18.4656 101.503 18.0747 101.503 17.6839C101.503 17.2931 101.6 16.9023 101.6 16.6092C101.698 16.2184 101.795 15.9253 101.893 15.6322C101.99 15.3391 102.185 15.046 102.478 14.8506C102.771 14.5575 103.063 14.3621 103.453 14.1667C103.843 13.9713 104.331 13.9713 104.818 13.9713C105.306 13.9713 105.793 14.069 106.086 14.1667C106.476 14.2644 106.768 14.5575 107.158 14.9483V10.5518H109.596V23.6437H109.693ZM105.598 16.023C105.208 16.023 104.916 16.1207 104.721 16.2184C104.526 16.3161 104.331 16.5115 104.233 16.8046C104.136 17.0977 104.038 17.3908 104.038 17.6839C104.038 18.0747 103.941 18.3679 103.941 18.7587C103.941 19.1495 103.941 19.5403 104.038 19.8334C104.038 20.2242 104.136 20.5173 104.233 20.7127C104.331 21.0058 104.526 21.2012 104.721 21.2989C104.916 21.3966 105.208 21.4943 105.598 21.4943C105.988 21.4943 106.281 21.3966 106.476 21.2989C106.671 21.2012 106.866 21.0058 106.963 20.7127C107.061 20.4196 107.158 20.1265 107.158 19.8334C107.158 19.4426 107.256 19.1495 107.256 18.7587C107.256 18.3679 107.256 17.977 107.158 17.6839C107.158 17.2931 107.061 17 106.963 16.8046C106.866 16.5115 106.671 16.3161 106.476 16.2184C106.281 16.1207 105.988 16.023 105.598 16.023Z" fill="white"/>
<path d="M115.738 13.8735C116.421 13.8735 117.006 13.9712 117.494 14.2643C117.981 14.4597 118.469 14.8505 118.859 15.2414C119.249 15.6322 119.541 16.1207 119.639 16.7069C119.834 17.2931 119.931 17.8793 119.931 18.5632V19.5402H113.886C113.886 20.2241 114.081 20.7126 114.471 21.1034C114.861 21.4942 115.348 21.6896 116.031 21.6896C116.519 21.6896 117.006 21.5919 117.299 21.4942C117.591 21.2988 117.884 21.1034 118.176 20.8103L119.639 22.2758C119.346 22.5689 119.151 22.7643 118.859 22.9597C118.566 23.1551 118.371 23.3505 118.079 23.4482C117.786 23.5459 117.494 23.6436 117.104 23.7413C116.714 23.8391 116.324 23.8391 115.934 23.8391C115.348 23.8391 114.763 23.7414 114.276 23.6436C113.788 23.4482 113.301 23.2528 112.813 22.862C112.423 22.4712 112.033 21.9827 111.838 21.2988C111.546 20.6149 111.448 19.8333 111.448 18.8563C111.448 18.0747 111.546 17.3908 111.741 16.7069C111.936 16.1207 112.228 15.5345 112.618 15.1437C113.008 14.7528 113.398 14.362 113.983 14.1666C114.568 13.9712 115.153 13.8735 115.738 13.8735ZM115.738 15.8276C115.348 15.8276 114.958 15.9253 114.666 16.1207C114.373 16.3161 114.178 16.5115 114.081 16.8046C113.983 17 113.983 17.0977 113.886 17.2931C113.886 17.4885 113.886 17.5862 113.886 17.8793H117.591C117.591 17.6839 117.591 17.4885 117.591 17.2931C117.591 17.0977 117.494 17 117.396 16.8046C117.299 16.5115 117.104 16.3161 116.811 16.1207C116.519 15.9253 116.129 15.8276 115.738 15.8276Z" fill="white"/>
<path d="M126.757 13.8735C127.245 13.8735 127.635 13.9712 128.025 14.0689C128.415 14.1666 128.707 14.4597 129.097 14.7528L127.245 16.6092C127.05 16.4138 126.855 16.3161 126.66 16.2184C126.465 16.1207 126.27 16.023 125.977 16.023C125.782 16.023 125.587 16.023 125.392 16.1207C125.197 16.2184 125.002 16.3161 124.905 16.4138C124.71 16.6092 124.612 16.7069 124.514 17C124.417 17.1954 124.417 17.4885 124.417 17.7816V23.6437H121.882V13.8735H124.222V14.8505C124.417 14.5574 124.807 14.362 125.197 14.0689C125.685 13.9712 126.172 13.8735 126.757 13.8735Z" fill="white"/>
</g>
<defs>
<clipPath id="clip0">
<rect width="129" height="34" fill="white"/>
</clipPath>
</defs>
</svg>
