<svg width="15" height="24" viewBox="0 0 15 24" fill="none" xmlns="http://www.w3.org/2000/svg">
<path fill-rule="evenodd" clip-rule="evenodd" d="M9.8 23H5.4C2.98 23 1 21.02 1 18.6V5.4C1 2.98 2.98 1 5.4 1H9.8C12.22 1 14.2 2.98 14.2 5.4V18.6C14.2 21.02 12.22 23 9.8 23Z" stroke="#0cbaba" stroke-linecap="round" stroke-linejoin="round"/>
<path d="M7.6001 11.2666V13.4666" stroke="#0cbaba" stroke-linecap="round" stroke-linejoin="round"/>
<path d="M7.6001 6.13317V4.6665" stroke="#0cbaba" stroke-linecap="round" stroke-linejoin="round"/>
<path fill-rule="evenodd" clip-rule="evenodd" d="M7.59997 11.2666V11.2666C6.7933 11.2666 6.1333 10.6066 6.1333 9.79997V7.59997C6.1333 6.7933 6.7933 6.1333 7.59997 6.1333V6.1333C8.40663 6.1333 9.06663 6.7933 9.06663 7.59997V9.79997C9.06663 10.6066 8.40663 11.2666 7.59997 11.2666Z" stroke="#0cbaba" stroke-linecap="round" stroke-linejoin="round"/>
</svg>
