<svg width="15" height="24" viewBox="0 0 15 24" fill="none" xmlns="http://www.w3.org/2000/svg">
<path fill-rule="evenodd" clip-rule="evenodd" d="M9.8 23.0005H5.4C2.98 23.0005 1 21.0205 1 18.6005V5.40049C1 2.98049 2.98 1.00049 5.4 1.00049H9.8C12.22 1.00049 14.2 2.98049 14.2 5.40049V18.6005C14.2 21.0205 12.22 23.0005 9.8 23.0005Z" stroke="#0cbaba" stroke-linecap="round" stroke-linejoin="round"/>
<path d="M7.6001 11.2671V13.4671" stroke="#0cbaba" stroke-linecap="round" stroke-linejoin="round"/>
<path d="M7.6001 6.13366V4.66699" stroke="#0cbaba" stroke-linecap="round" stroke-linejoin="round"/>
<path fill-rule="evenodd" clip-rule="evenodd" d="M7.59997 11.2671V11.2671C6.7933 11.2671 6.1333 10.6071 6.1333 9.80046V7.60046C6.1333 6.79379 6.7933 6.13379 7.59997 6.13379V6.13379C8.40663 6.13379 9.06663 6.79379 9.06663 7.60046V9.80046C9.06663 10.6071 8.40663 11.2671 7.59997 11.2671Z" stroke="#0cbaba" stroke-linecap="round" stroke-linejoin="round"/>
</svg>
