<svg width="72" height="72" viewBox="0 0 72 72" fill="none" xmlns="http://www.w3.org/2000/svg">
<path d="M57.5033 34.2857V34.7857H58.0033H63.0747C67.5253 34.7857 71.0271 38.3267 71.0271 42.8571C71.0271 47.3876 67.5253 50.9286 63.0747 50.9286H58.0033H57.5033V51.4286V65.1429C57.5033 68.6448 54.6777 71.5 51.2414 71.5H38.8938V66.8571C38.8938 61.4448 34.6193 57.1 29.2652 57.1C23.9111 57.1 19.6366 61.4448 19.6366 66.8571V71.5H7.289C3.85267 71.5 1.0271 68.6448 1.0271 65.1429V52.6143H5.59853C10.9527 52.6143 15.2271 48.2695 15.2271 42.8571C15.2271 37.4448 10.9527 33.1 5.59853 33.1H1.0271V20.5714C1.0271 17.0695 3.85267 14.2143 7.289 14.2143H20.8128H21.3128V13.7143V8.57143C21.3128 4.04095 24.8146 0.5 29.2652 0.5C33.7158 0.5 37.2176 4.04096 37.2176 8.57143V13.7143V14.2143H37.7176H51.2414C54.6777 14.2143 57.5033 17.0695 57.5033 20.5714V34.2857Z" stroke="url(#paint0_linear)"/>
<defs>
<linearGradient id="paint0_linear" x1="0.527101" y1="-10.6597" x2="108.158" y2="148.193" gradientUnits="userSpaceOnUse">
<stop stop-color="#f6fba2"/>
<stop offset="1" stop-color="#2a8580"/>
</linearGradient>
</defs>
</svg>
