<svg width="65" height="65" viewBox="0 0 65 65" fill="none" xmlns="http://www.w3.org/2000/svg">
<path d="M18.4642 33.6046L19.0284 33.9305L18.5677 34.3911L1.54052 51.4189C0.61829 52.3411 0.61829 53.8361 1.54027 54.7583L9.84888 63.068L9.84895 63.0681C10.2916 63.511 10.8921 63.7599 11.5185 63.7599C12.1444 63.7599 12.7455 63.511 13.1881 63.0681L13.1882 63.068L30.2142 46.0403L30.6749 45.5795L31.0008 46.1437L38.0168 58.2914L38.0168 58.2915C38.469 59.075 39.3289 59.5309 40.2313 59.4653L40.2316 59.4653C41.134 59.4001 41.9198 58.8251 42.255 57.9849C42.255 57.9848 42.255 57.9848 42.2551 57.9848L63.8596 3.80981L63.8596 3.80969C64.2092 2.9337 64.0033 1.93335 63.3359 1.26556C62.6684 0.598349 61.6678 0.392369 60.7917 0.742215L60.7916 0.742286L6.62283 22.3503L6.62275 22.3503C5.7827 22.6853 5.20782 23.4709 5.14267 24.3735C5.07753 25.2758 5.53326 26.1356 6.31659 26.588L6.06652 27.021L6.31661 26.588L18.4642 33.6046Z" stroke="url(#paint0_linear)"/>
<defs>
<linearGradient id="paint0_linear" x1="32.4383" y1="0.0739746" x2="18.5267" y2="102" gradientUnits="userSpaceOnUse">
<stop stop-color="#f6fba2"/>
<stop offset="1" stop-color="#20ded3"/>
</linearGradient>
</defs>
</svg>
