<svg width="68" height="72" viewBox="0 0 68 72" fill="none" xmlns="http://www.w3.org/2000/svg">
<path d="M11.5581 52.8186L11.5581 52.8188L7.96448 69.7461L8.43889 69.904C8.43871 69.9045 8.43852 69.9051 8.43834 69.9057C8.23803 70.5111 8.68339 71.1415 9.34886 71.1415H37.2343C37.688 71.1415 38.0783 70.8214 38.1716 70.3827C38.7872 67.3609 39.5345 65.5262 39.9739 64.5867L39.9739 64.5867L39.9775 64.5793C40.2854 63.9483 41.0881 63.6847 41.7147 64.0629C44.7039 65.832 48.1009 67.1023 50.9437 67.7499C52.3661 68.074 53.633 68.2382 54.63 68.237C55.1286 68.2364 55.5463 68.1943 55.8759 68.1167C56.2105 68.038 56.4197 67.9308 56.537 67.826L56.5385 67.8248C56.92 67.487 57.2485 67.1295 57.5627 66.5687C57.8822 65.9985 58.1962 65.2015 58.5215 63.9753C59.1737 61.5164 59.8484 57.4233 60.7386 50.1746C60.8651 49.1255 61.6778 48.3072 62.7204 48.1648C62.7208 48.1648 62.7211 48.1647 62.7214 48.1647L65.0923 47.8306C66.9468 47.5692 67.9897 45.5746 66.9965 43.9608L66.9963 43.9609L66.9896 43.9492L61.0282 33.6501L61.0213 33.6381L61.015 33.6257C60.6957 32.9956 60.5354 32.301 60.5514 31.5906L60.5515 31.5871C60.9686 17.4616 52.4992 6.57688 40.4702 2.67133L40.4698 2.67119C32.5845 0.103331 23.7489 0.102611 16.4326 2.97988C9.13247 5.85076 3.34418 11.5828 1.47556 20.5267C0.334961 26.0046 0.384827 30.1033 1.08184 33.321C1.77785 36.5341 3.12593 38.9006 4.63168 40.9094C5.38745 41.9177 6.18145 42.8341 6.95997 43.7302L7.00427 43.7812C7.76342 44.655 8.51017 45.5145 9.16724 46.4027C10.5155 48.2255 11.5133 50.2047 11.5581 52.8186Z" stroke="url(#paint0_linear)"/>
<defs>
<linearGradient id="paint0_linear" x1="26.5273" y1="-14.0041" x2="67.5273" y2="120" gradientUnits="userSpaceOnUse">
<stop stop-color="#f6fba2"/>
<stop offset="1" stop-color="#20ded3"/>
</linearGradient>
</defs>
</svg>
