<svg width="57" height="57" viewBox="0 0 57 57" fill="none" xmlns="http://www.w3.org/2000/svg">
<path d="M56.6914 39.77C56.8968 39.9748 56.9994 40.238 56.9994 40.5583V47.1355C56.9994 47.4553 56.8968 47.7182 56.6914 47.9226C56.4866 48.1279 56.2237 48.2314 55.9043 48.2314H48.7312H48.2312V48.7314V55.9045C48.2312 56.224 48.1278 56.4867 47.9224 56.692C47.7176 56.8973 47.4548 56.9999 47.135 56.9999H40.5581C40.2376 56.9999 39.9748 56.8973 39.7699 56.692L56.6914 39.77ZM56.6914 39.77C56.4868 39.5647 56.224 39.4612 55.9046 39.4612H48.7315L56.6914 39.77ZM47.7315 39.4612V39.9612H48.2315H55.9046C56.1053 39.9612 56.2361 40.0214 56.3372 40.1229L56.3384 40.1241C56.4392 40.2245 56.4994 40.3552 56.4994 40.5583V47.1355C56.4994 47.338 56.4393 47.4681 56.3387 47.5683L56.3374 47.5695C56.236 47.6712 56.1051 47.7314 55.9043 47.7314H48.2312H47.7312V48.2314V55.9045C47.7312 56.1052 47.6712 56.2362 47.569 56.3383L47.5684 56.3389C47.4677 56.4398 47.3373 56.4999 47.135 56.4999H40.5581C40.3549 56.4999 40.2245 56.4397 40.1237 56.3388L40.1233 56.3383C40.022 56.2371 39.962 56.1063 39.962 55.9045V48.2314V47.7314H39.462H9.8655C9.66467 47.7314 9.53343 47.6713 9.43094 47.5689L9.4301 47.5681C9.32927 47.4678 9.26924 47.3378 9.26924 47.1355V17.5386V17.0386H8.76924H1.09602C0.895008 17.0386 0.76374 16.9786 0.661353 16.8764L0.661249 16.8763C0.559998 16.7753 0.5 16.6449 0.5 16.4426V9.8655C0.5 9.6642 0.560034 9.53307 0.662093 9.43083C0.763337 9.32941 0.893787 9.26948 1.09614 9.26948H8.76936H9.26936V8.76948V1.09626C9.26936 0.894977 9.32938 0.763905 9.43147 0.661697L9.43188 0.661282C9.53275 0.560065 9.66334 0.5 9.86562 0.5H16.4423C16.644 0.5 16.7748 0.559983 16.877 0.662109L16.8774 0.66252C16.9787 0.763422 17.0387 0.893802 17.0387 1.09626V8.76948V9.26948H17.5387H46.6893H46.8969L47.0435 9.12232L55.4601 0.671721C55.5968 0.551652 55.7387 0.5 55.9046 0.5C56.0646 0.5 56.2036 0.548958 56.3378 0.662772C56.4511 0.796357 56.5 0.93501 56.5 1.09638C56.5 1.26171 56.4485 1.4034 56.3285 1.54054L47.8786 9.95636L47.7315 10.1029V10.3106V39.4612ZM17.5387 17.038H17.0387V17.538V37.9202V39.1273L17.8923 38.2738L38.2746 17.8916L39.1282 17.038H37.9211H17.5387ZM39.462 39.9612H39.962V39.4612V19.0789V17.8718L39.1084 18.7254L18.7264 39.1076L17.8729 39.9612H19.08H39.462Z" stroke="url(#paint0_linear)"/>
<defs>
<linearGradient id="paint0_linear" x1="34.7682" y1="-11.4113" x2="3.39126" y2="96.526" gradientUnits="userSpaceOnUse">
<stop stop-color="#FF6D6D"/>
<stop offset="1" stop-color="#2A31FF"/>
</linearGradient>
</defs>
</svg>
