<svg width="12" height="12" viewBox="0 0 12 12" fill="none" xmlns="http://www.w3.org/2000/svg">
<path d="M11.5311 2.99603C11.4831 4.19737 10.7143 5.86881 9.17684 8.01034C7.59131 10.2041 6.29406 11.3532 5.189 11.3532C4.51635 11.3532 3.9398 10.6742 3.45933 9.31614C3.17105 8.06257 2.83473 6.86122 2.54645 5.60765C2.21013 4.24961 1.82576 3.57059 1.44139 3.57059C1.3453 3.57059 1.05702 3.77951 0.528509 4.14514L0 3.41389C0.576555 2.89156 1.15311 2.31701 1.68162 1.79469C2.45036 1.06343 3.02692 0.697806 3.41129 0.645573C4.32417 0.541109 4.85267 1.22013 5.04486 2.6304C5.28509 4.14514 5.42923 5.13756 5.52532 5.50318C5.76555 6.75676 6.05383 7.43578 6.39016 7.43578C6.63039 7.43578 7.01476 7.01792 7.49522 6.1822C7.97568 5.34649 8.21592 4.7197 8.26396 4.30184C8.31201 3.57059 8.07178 3.20496 7.49522 3.20496C7.20694 3.20496 6.91867 3.25719 6.63039 3.41389C7.20694 1.37683 8.26396 0.436644 9.89754 0.488876C11.0506 0.541109 11.5792 1.37683 11.5311 2.99603Z" fill="#FF6D6D"/>
</svg>
